<mxfile host="Electron" modified="2023-10-21T14:32:02.043Z" agent="Mozilla/5.0 (Windows NT 10.0; Win64; x64) AppleWebKit/537.36 (KHTML, like Gecko) draw.io/22.0.2 Chrome/114.0.5735.289 Electron/25.8.4 Safari/537.36" etag="JsSk-ynxKa298bcoLmFg" version="22.0.2" type="device">
  <diagram name="Page-1" id="2YBvvXClWsGukQMizWep">
    <mxGraphModel dx="522" dy="608" grid="1" gridSize="10" guides="1" tooltips="1" connect="1" arrows="1" fold="1" page="1" pageScale="1" pageWidth="850" pageHeight="1100" math="0" shadow="0">
      <root>
        <mxCell id="0" />
        <mxCell id="1" parent="0" />
        <mxCell id="SB4TEwUQo2XcKW8rI5Qr-15" value="" style="rounded=0;whiteSpace=wrap;html=1;" parent="1" vertex="1">
          <mxGeometry x="335" y="180" width="10" height="260" as="geometry" />
        </mxCell>
        <mxCell id="SB4TEwUQo2XcKW8rI5Qr-1" value="User" style="shape=umlActor;verticalLabelPosition=bottom;verticalAlign=top;html=1;outlineConnect=0;" parent="1" vertex="1">
          <mxGeometry x="70" y="90" width="30" height="60" as="geometry" />
        </mxCell>
        <mxCell id="SB4TEwUQo2XcKW8rI5Qr-2" value=":System" style="rounded=0;whiteSpace=wrap;html=1;" parent="1" vertex="1">
          <mxGeometry x="280" y="110" width="120" height="60" as="geometry" />
        </mxCell>
        <mxCell id="SB4TEwUQo2XcKW8rI5Qr-3" value=":Database" style="rounded=0;whiteSpace=wrap;html=1;" parent="1" vertex="1">
          <mxGeometry x="559" y="110" width="120" height="60" as="geometry" />
        </mxCell>
        <mxCell id="SB4TEwUQo2XcKW8rI5Qr-4" value="" style="endArrow=none;dashed=1;html=1;rounded=0;entryX=0.5;entryY=1;entryDx=0;entryDy=0;" parent="1" source="SB4TEwUQo2XcKW8rI5Qr-40" target="SB4TEwUQo2XcKW8rI5Qr-3" edge="1">
          <mxGeometry width="50" height="50" relative="1" as="geometry">
            <mxPoint x="620" y="480" as="sourcePoint" />
            <mxPoint x="640" y="230" as="targetPoint" />
          </mxGeometry>
        </mxCell>
        <mxCell id="SB4TEwUQo2XcKW8rI5Qr-5" value="" style="endArrow=none;dashed=1;html=1;rounded=0;" parent="1" source="SB4TEwUQo2XcKW8rI5Qr-15" target="SB4TEwUQo2XcKW8rI5Qr-2" edge="1">
          <mxGeometry width="50" height="50" relative="1" as="geometry">
            <mxPoint x="339.52" y="581.5237862723214" as="sourcePoint" />
            <mxPoint x="339.52" y="170" as="targetPoint" />
          </mxGeometry>
        </mxCell>
        <mxCell id="SB4TEwUQo2XcKW8rI5Qr-6" value="" style="endArrow=none;dashed=1;html=1;rounded=0;" parent="1" source="SB4TEwUQo2XcKW8rI5Qr-35" edge="1">
          <mxGeometry width="50" height="50" relative="1" as="geometry">
            <mxPoint x="85" y="480" as="sourcePoint" />
            <mxPoint x="85" y="170" as="targetPoint" />
          </mxGeometry>
        </mxCell>
        <mxCell id="SB4TEwUQo2XcKW8rI5Qr-7" value="" style="rounded=0;whiteSpace=wrap;html=1;" parent="1" vertex="1">
          <mxGeometry x="80" y="180" width="10" height="50" as="geometry" />
        </mxCell>
        <mxCell id="SB4TEwUQo2XcKW8rI5Qr-8" value="" style="endArrow=classic;html=1;rounded=0;exitX=1;exitY=0.25;exitDx=0;exitDy=0;entryX=-0.057;entryY=0.046;entryDx=0;entryDy=0;entryPerimeter=0;" parent="1" source="SB4TEwUQo2XcKW8rI5Qr-7" target="SB4TEwUQo2XcKW8rI5Qr-15" edge="1">
          <mxGeometry width="50" height="50" relative="1" as="geometry">
            <mxPoint x="200" y="300" as="sourcePoint" />
            <mxPoint x="330" y="193" as="targetPoint" />
          </mxGeometry>
        </mxCell>
        <mxCell id="SB4TEwUQo2XcKW8rI5Qr-9" value="Enter Username" style="text;html=1;align=center;verticalAlign=middle;resizable=0;points=[];autosize=1;strokeColor=none;fillColor=none;" parent="1" vertex="1">
          <mxGeometry x="145" y="170" width="110" height="30" as="geometry" />
        </mxCell>
        <mxCell id="SB4TEwUQo2XcKW8rI5Qr-10" value="" style="endArrow=classic;html=1;rounded=0;entryX=-0.269;entryY=0.099;entryDx=0;entryDy=0;entryPerimeter=0;" parent="1" edge="1">
          <mxGeometry width="50" height="50" relative="1" as="geometry">
            <mxPoint x="90" y="208" as="sourcePoint" />
            <mxPoint x="335.31000000000006" y="207.64" as="targetPoint" />
          </mxGeometry>
        </mxCell>
        <mxCell id="SB4TEwUQo2XcKW8rI5Qr-11" value="Enter Password" style="text;html=1;align=center;verticalAlign=middle;resizable=0;points=[];autosize=1;strokeColor=none;fillColor=none;" parent="1" vertex="1">
          <mxGeometry x="144" y="187" width="110" height="30" as="geometry" />
        </mxCell>
        <mxCell id="SB4TEwUQo2XcKW8rI5Qr-13" value="Alt" style="shape=umlFrame;whiteSpace=wrap;html=1;pointerEvents=0;" parent="1" vertex="1">
          <mxGeometry x="10" y="270" width="690" height="130" as="geometry" />
        </mxCell>
        <mxCell id="SB4TEwUQo2XcKW8rI5Qr-14" value="" style="endArrow=none;dashed=1;html=1;rounded=0;exitX=-0.001;exitY=0.537;exitDx=0;exitDy=0;exitPerimeter=0;" parent="1" source="SB4TEwUQo2XcKW8rI5Qr-13" edge="1">
          <mxGeometry width="50" height="50" relative="1" as="geometry">
            <mxPoint x="10" y="342" as="sourcePoint" />
            <mxPoint x="700" y="340" as="targetPoint" />
          </mxGeometry>
        </mxCell>
        <mxCell id="SB4TEwUQo2XcKW8rI5Qr-16" value="" style="endArrow=none;dashed=1;html=1;rounded=0;" parent="1" source="SB4TEwUQo2XcKW8rI5Qr-36" target="SB4TEwUQo2XcKW8rI5Qr-15" edge="1">
          <mxGeometry width="50" height="50" relative="1" as="geometry">
            <mxPoint x="340" y="480" as="sourcePoint" />
            <mxPoint x="340" y="170" as="targetPoint" />
          </mxGeometry>
        </mxCell>
        <mxCell id="SB4TEwUQo2XcKW8rI5Qr-24" value="Invalid&lt;br style=&quot;border-color: var(--border-color);&quot;&gt;Information" style="text;html=1;align=center;verticalAlign=middle;resizable=0;points=[];autosize=1;strokeColor=none;fillColor=none;" parent="1" vertex="1">
          <mxGeometry x="6" y="300" width="80" height="40" as="geometry" />
        </mxCell>
        <mxCell id="SB4TEwUQo2XcKW8rI5Qr-26" value="Valid&lt;br style=&quot;border-color: var(--border-color);&quot;&gt;Information" style="text;html=1;align=center;verticalAlign=middle;resizable=0;points=[];autosize=1;strokeColor=none;fillColor=none;" parent="1" vertex="1">
          <mxGeometry x="5" y="350" width="80" height="40" as="geometry" />
        </mxCell>
        <mxCell id="SB4TEwUQo2XcKW8rI5Qr-28" value="" style="endArrow=open;endSize=12;dashed=1;html=1;rounded=0;exitX=0.949;exitY=0.122;exitDx=0;exitDy=0;exitPerimeter=0;entryX=1.06;entryY=0.101;entryDx=0;entryDy=0;entryPerimeter=0;" parent="1" source="SB4TEwUQo2XcKW8rI5Qr-29" target="SB4TEwUQo2XcKW8rI5Qr-24" edge="1">
          <mxGeometry width="160" relative="1" as="geometry">
            <mxPoint x="326" y="307" as="sourcePoint" />
            <mxPoint x="96" y="307" as="targetPoint" />
          </mxGeometry>
        </mxCell>
        <mxCell id="SB4TEwUQo2XcKW8rI5Qr-29" value="notify User" style="text;whiteSpace=wrap;html=1;" parent="1" vertex="1">
          <mxGeometry x="200" y="300" width="140" height="40" as="geometry" />
        </mxCell>
        <mxCell id="SB4TEwUQo2XcKW8rI5Qr-30" value="" style="endArrow=open;endSize=12;dashed=1;html=1;rounded=0;exitX=0.949;exitY=0.122;exitDx=0;exitDy=0;exitPerimeter=0;entryX=1.06;entryY=0.101;entryDx=0;entryDy=0;entryPerimeter=0;" parent="1" edge="1">
          <mxGeometry width="160" relative="1" as="geometry">
            <mxPoint x="332" y="375" as="sourcePoint" />
            <mxPoint x="94" y="374" as="targetPoint" />
          </mxGeometry>
        </mxCell>
        <mxCell id="SB4TEwUQo2XcKW8rI5Qr-31" value="Login Success" style="text;whiteSpace=wrap;html=1;" parent="1" vertex="1">
          <mxGeometry x="203" y="350" width="90" height="40" as="geometry" />
        </mxCell>
        <mxCell id="SB4TEwUQo2XcKW8rI5Qr-33" value="" style="endArrow=classic;html=1;rounded=0;exitX=0.988;exitY=0.221;exitDx=0;exitDy=0;exitPerimeter=0;" parent="1" edge="1">
          <mxGeometry width="50" height="50" relative="1" as="geometry">
            <mxPoint x="343.8799999999999" y="230.46000000000004" as="sourcePoint" />
            <mxPoint x="610" y="230" as="targetPoint" />
          </mxGeometry>
        </mxCell>
        <mxCell id="SB4TEwUQo2XcKW8rI5Qr-34" value="Verify Credentials" style="text;html=1;align=center;verticalAlign=middle;resizable=0;points=[];autosize=1;strokeColor=none;fillColor=none;" parent="1" vertex="1">
          <mxGeometry x="399" y="201" width="120" height="30" as="geometry" />
        </mxCell>
        <mxCell id="SB4TEwUQo2XcKW8rI5Qr-35" value="" style="shape=umlDestroy;whiteSpace=wrap;html=1;strokeWidth=3;targetShapes=umlLifeline;" parent="1" vertex="1">
          <mxGeometry x="70" y="465" width="30" height="30" as="geometry" />
        </mxCell>
        <mxCell id="SB4TEwUQo2XcKW8rI5Qr-36" value="" style="shape=umlDestroy;whiteSpace=wrap;html=1;strokeWidth=3;targetShapes=umlLifeline;" parent="1" vertex="1">
          <mxGeometry x="325" y="465" width="30" height="30" as="geometry" />
        </mxCell>
        <mxCell id="SB4TEwUQo2XcKW8rI5Qr-37" value="" style="shape=umlDestroy;whiteSpace=wrap;html=1;strokeWidth=3;targetShapes=umlLifeline;" parent="1" vertex="1">
          <mxGeometry x="605" y="465" width="30" height="30" as="geometry" />
        </mxCell>
        <mxCell id="SB4TEwUQo2XcKW8rI5Qr-38" value="" style="endArrow=open;endSize=12;dashed=1;html=1;rounded=0;entryX=1.06;entryY=0.101;entryDx=0;entryDy=0;entryPerimeter=0;exitX=0.739;exitY=1.887;exitDx=0;exitDy=0;exitPerimeter=0;" parent="1" edge="1">
          <mxGeometry width="160" relative="1" as="geometry">
            <mxPoint x="607.1299999999999" y="248.44850000000008" as="sourcePoint" />
            <mxPoint x="346" y="249.32999999999998" as="targetPoint" />
          </mxGeometry>
        </mxCell>
        <mxCell id="SB4TEwUQo2XcKW8rI5Qr-39" value="Notify system" style="text;html=1;align=center;verticalAlign=middle;resizable=0;points=[];autosize=1;strokeColor=none;fillColor=none;" parent="1" vertex="1">
          <mxGeometry x="413" y="227" width="100" height="30" as="geometry" />
        </mxCell>
        <mxCell id="SB4TEwUQo2XcKW8rI5Qr-41" value="" style="endArrow=none;dashed=1;html=1;rounded=0;entryX=1;entryY=0.5;entryDx=0;entryDy=0;" parent="1" source="SB4TEwUQo2XcKW8rI5Qr-37" target="SB4TEwUQo2XcKW8rI5Qr-40" edge="1">
          <mxGeometry width="50" height="50" relative="1" as="geometry">
            <mxPoint x="620" y="465" as="sourcePoint" />
            <mxPoint x="619" y="170" as="targetPoint" />
          </mxGeometry>
        </mxCell>
        <mxCell id="SB4TEwUQo2XcKW8rI5Qr-40" value="" style="rounded=0;whiteSpace=wrap;html=1;rotation=90;" parent="1" vertex="1">
          <mxGeometry x="604.13" y="231.63" width="29.75" height="10" as="geometry" />
        </mxCell>
        <mxCell id="SB4TEwUQo2XcKW8rI5Qr-42" value="" style="endArrow=open;endSize=12;dashed=1;html=1;rounded=0;exitX=0.949;exitY=0.122;exitDx=0;exitDy=0;exitPerimeter=0;entryX=1.06;entryY=0.101;entryDx=0;entryDy=0;entryPerimeter=0;" parent="1" edge="1">
          <mxGeometry width="160" relative="1" as="geometry">
            <mxPoint x="328" y="428" as="sourcePoint" />
            <mxPoint x="90" y="427" as="targetPoint" />
          </mxGeometry>
        </mxCell>
        <mxCell id="SB4TEwUQo2XcKW8rI5Qr-43" value="Redirect To Home Page" style="text;whiteSpace=wrap;html=1;" parent="1" vertex="1">
          <mxGeometry x="155" y="403" width="131" height="40" as="geometry" />
        </mxCell>
        <mxCell id="SB4TEwUQo2XcKW8rI5Qr-44" value="" style="rounded=0;whiteSpace=wrap;html=1;" parent="1" vertex="1">
          <mxGeometry x="80" y="412" width="10" height="33" as="geometry" />
        </mxCell>
        <mxCell id="oZ_aV7rfm9-zmChiLQNR-1" value="" style="rounded=0;whiteSpace=wrap;html=1;" vertex="1" parent="1">
          <mxGeometry x="80" y="290" width="10" height="97" as="geometry" />
        </mxCell>
      </root>
    </mxGraphModel>
  </diagram>
</mxfile>
